<?xml version="1.0" encoding="UTF-8" standalone="no"?>
<svg xmlns="http://www.w3.org/2000/svg" version="1.2" baseProfile="tiny" viewBox="0.00 0.00 112.00 108.00">
<path fill="#004b9c" d="
  M 84.23 24.03
  Q 67.14 23.94 50.04 24.02
  C 44.15 24.05 38.25 23.22 39.27 15.50
  C 40.03 9.71 44.87 9.03 50.12 9.02
  Q 69.94 8.99 89.75 9.21
  C 95.23 9.27 100.06 10.25 100.06 17.07
  Q 100.06 38.65 99.99 60.25
  C 99.96 73.62 84.48 73.55 85.01 59.75
  Q 85.69 42.19 84.84 24.60
  Q 84.81 24.03 84.23 24.03
  Z"
/>
<path fill="#004b9c" d="
  M 62.24 40.04
  C 68.66 40.05 69.85 44.55 69.90 50.20
  Q 70.09 70.96 69.98 91.76
  C 69.92 101.60 54.00 104.27 54.00 90.44
  Q 54.00 73.10 54.00 55.93
  A 0.94 0.93 -0.0 0 0 53.06 55.00
  Q 36.44 55.01 19.52 54.99
  Q 14.44 54.98 12.34 53.72
  C 8.42 51.37 7.48 44.29 11.24 41.23
  Q 12.76 39.99 16.05 39.99
  Q 39.17 40.01 62.24 40.04
  Z"
/>
</svg>
